<mxfile host="app.diagrams.net" modified="2024-04-20T21:36:55.220Z" agent="Mozilla/5.0 (Windows NT 10.0; Win64; x64) AppleWebKit/537.36 (KHTML, like Gecko) Chrome/123.0.0.0 Safari/537.36" etag="tPVS0K7B20rYyvLihLEU" version="24.2.7" type="github">
  <diagram name="Page-1" id="mJo-rlMSn84zewNQrQVx">
    <mxGraphModel dx="1050" dy="557" grid="1" gridSize="10" guides="1" tooltips="1" connect="1" arrows="1" fold="1" page="1" pageScale="1" pageWidth="850" pageHeight="1100" math="0" shadow="0">
      <root>
        <mxCell id="0" />
        <mxCell id="1" parent="0" />
        <mxCell id="rjxhquQ0YUwU6D_5x0ZY-1" value="DB SQLITE" style="rounded=0;whiteSpace=wrap;html=1;fontFamily=Times New Roman;fontStyle=1" vertex="1" parent="1">
          <mxGeometry x="121" y="41" width="160" height="80" as="geometry" />
        </mxCell>
        <mxCell id="rjxhquQ0YUwU6D_5x0ZY-2" value="Default Admin&amp;nbsp;" style="rounded=0;whiteSpace=wrap;html=1;fontFamily=Times New Roman;fontStyle=1" vertex="1" parent="1">
          <mxGeometry x="121" y="179" width="120" height="60" as="geometry" />
        </mxCell>
        <mxCell id="rjxhquQ0YUwU6D_5x0ZY-3" value="Admin Customer" style="rounded=0;whiteSpace=wrap;html=1;fontFamily=Times New Roman;fontStyle=1" vertex="1" parent="1">
          <mxGeometry x="280" y="180" width="120" height="60" as="geometry" />
        </mxCell>
        <mxCell id="rjxhquQ0YUwU6D_5x0ZY-4" value="About Admin" style="rounded=0;whiteSpace=wrap;html=1;fontFamily=Times New Roman;fontStyle=1" vertex="1" parent="1">
          <mxGeometry x="392" y="60" width="120" height="60" as="geometry" />
        </mxCell>
        <mxCell id="rjxhquQ0YUwU6D_5x0ZY-5" value="Admin Customer List" style="rounded=0;whiteSpace=wrap;html=1;fontFamily=Times New Roman;fontStyle=1" vertex="1" parent="1">
          <mxGeometry x="439" y="180" width="120" height="60" as="geometry" />
        </mxCell>
        <mxCell id="rjxhquQ0YUwU6D_5x0ZY-6" value="" style="endArrow=none;html=1;rounded=0;fontFamily=Times New Roman;fontStyle=1" edge="1" parent="1">
          <mxGeometry width="50" height="50" relative="1" as="geometry">
            <mxPoint x="322" y="180" as="sourcePoint" />
            <mxPoint x="322" y="80" as="targetPoint" />
          </mxGeometry>
        </mxCell>
        <mxCell id="rjxhquQ0YUwU6D_5x0ZY-7" value="" style="endArrow=none;html=1;rounded=0;fontFamily=Times New Roman;fontStyle=1" edge="1" parent="1">
          <mxGeometry width="50" height="50" relative="1" as="geometry">
            <mxPoint x="321" y="80" as="sourcePoint" />
            <mxPoint x="391" y="80" as="targetPoint" />
          </mxGeometry>
        </mxCell>
        <mxCell id="rjxhquQ0YUwU6D_5x0ZY-10" value="" style="endArrow=none;html=1;rounded=0;exitX=0;exitY=0;exitDx=0;exitDy=0;fontFamily=Times New Roman;fontStyle=1" edge="1" parent="1">
          <mxGeometry width="50" height="50" relative="1" as="geometry">
            <mxPoint x="480" y="180" as="sourcePoint" />
            <mxPoint x="480" y="121" as="targetPoint" />
          </mxGeometry>
        </mxCell>
        <mxCell id="rjxhquQ0YUwU6D_5x0ZY-11" value="" style="endArrow=classic;html=1;rounded=0;fontFamily=Times New Roman;fontStyle=1" edge="1" parent="1">
          <mxGeometry width="50" height="50" relative="1" as="geometry">
            <mxPoint x="399" y="201" as="sourcePoint" />
            <mxPoint x="439" y="201" as="targetPoint" />
          </mxGeometry>
        </mxCell>
        <mxCell id="rjxhquQ0YUwU6D_5x0ZY-13" value="" style="endArrow=classic;html=1;rounded=0;exitX=0.662;exitY=-0.007;exitDx=0;exitDy=0;exitPerimeter=0;fontFamily=Times New Roman;fontStyle=1" edge="1" parent="1" source="rjxhquQ0YUwU6D_5x0ZY-2">
          <mxGeometry width="50" height="50" relative="1" as="geometry">
            <mxPoint x="150" y="170" as="sourcePoint" />
            <mxPoint x="200" y="120" as="targetPoint" />
          </mxGeometry>
        </mxCell>
        <mxCell id="rjxhquQ0YUwU6D_5x0ZY-14" value="" style="endArrow=none;html=1;rounded=0;fontFamily=Times New Roman;fontStyle=1" edge="1" parent="1">
          <mxGeometry width="50" height="50" relative="1" as="geometry">
            <mxPoint x="260" y="200" as="sourcePoint" />
            <mxPoint x="280" y="200" as="targetPoint" />
          </mxGeometry>
        </mxCell>
        <mxCell id="rjxhquQ0YUwU6D_5x0ZY-15" value="" style="endArrow=classic;html=1;rounded=0;fontFamily=Times New Roman;fontStyle=1" edge="1" parent="1">
          <mxGeometry width="50" height="50" relative="1" as="geometry">
            <mxPoint x="260" y="200" as="sourcePoint" />
            <mxPoint x="260" y="120" as="targetPoint" />
          </mxGeometry>
        </mxCell>
        <mxCell id="rjxhquQ0YUwU6D_5x0ZY-16" value="Admin Sign In" style="rounded=0;whiteSpace=wrap;html=1;fontFamily=Times New Roman;fontStyle=1" vertex="1" parent="1">
          <mxGeometry x="40" y="311" width="120" height="60" as="geometry" />
        </mxCell>
        <mxCell id="rjxhquQ0YUwU6D_5x0ZY-17" value="Admin Sign Out" style="rounded=0;whiteSpace=wrap;html=1;fontFamily=Times New Roman;fontStyle=1" vertex="1" parent="1">
          <mxGeometry x="40" y="391" width="120" height="60" as="geometry" />
        </mxCell>
        <mxCell id="rjxhquQ0YUwU6D_5x0ZY-19" value="" style="endArrow=none;html=1;rounded=0;" edge="1" parent="1">
          <mxGeometry width="50" height="50" relative="1" as="geometry">
            <mxPoint x="80" y="311" as="sourcePoint" />
            <mxPoint x="80" y="280" as="targetPoint" />
          </mxGeometry>
        </mxCell>
        <mxCell id="rjxhquQ0YUwU6D_5x0ZY-20" value="" style="endArrow=none;html=1;rounded=0;" edge="1" parent="1">
          <mxGeometry width="50" height="50" relative="1" as="geometry">
            <mxPoint x="80" y="280" as="sourcePoint" />
            <mxPoint x="200" y="280" as="targetPoint" />
          </mxGeometry>
        </mxCell>
        <mxCell id="rjxhquQ0YUwU6D_5x0ZY-21" value="" style="endArrow=classic;html=1;rounded=0;" edge="1" parent="1">
          <mxGeometry width="50" height="50" relative="1" as="geometry">
            <mxPoint x="200" y="280" as="sourcePoint" />
            <mxPoint x="200" y="240" as="targetPoint" />
          </mxGeometry>
        </mxCell>
        <mxCell id="rjxhquQ0YUwU6D_5x0ZY-22" value="" style="endArrow=none;html=1;rounded=0;" edge="1" parent="1">
          <mxGeometry width="50" height="50" relative="1" as="geometry">
            <mxPoint x="200" y="280" as="sourcePoint" />
            <mxPoint x="320" y="280" as="targetPoint" />
          </mxGeometry>
        </mxCell>
        <mxCell id="rjxhquQ0YUwU6D_5x0ZY-24" value="" style="endArrow=none;html=1;rounded=0;" edge="1" parent="1">
          <mxGeometry width="50" height="50" relative="1" as="geometry">
            <mxPoint x="320" y="280" as="sourcePoint" />
            <mxPoint x="480" y="280" as="targetPoint" />
          </mxGeometry>
        </mxCell>
        <mxCell id="rjxhquQ0YUwU6D_5x0ZY-26" value="" style="endArrow=none;html=1;rounded=0;" edge="1" parent="1">
          <mxGeometry width="50" height="50" relative="1" as="geometry">
            <mxPoint x="479" y="281" as="sourcePoint" />
            <mxPoint x="479" y="241" as="targetPoint" />
          </mxGeometry>
        </mxCell>
        <mxCell id="rjxhquQ0YUwU6D_5x0ZY-29" value="" style="endArrow=none;html=1;rounded=0;entryX=0.75;entryY=1;entryDx=0;entryDy=0;" edge="1" parent="1" target="rjxhquQ0YUwU6D_5x0ZY-2">
          <mxGeometry width="50" height="50" relative="1" as="geometry">
            <mxPoint x="211" y="401" as="sourcePoint" />
            <mxPoint x="218" y="311" as="targetPoint" />
          </mxGeometry>
        </mxCell>
        <mxCell id="rjxhquQ0YUwU6D_5x0ZY-30" value="" style="endArrow=classic;html=1;rounded=0;" edge="1" parent="1">
          <mxGeometry width="50" height="50" relative="1" as="geometry">
            <mxPoint x="210" y="400" as="sourcePoint" />
            <mxPoint x="160" y="400" as="targetPoint" />
          </mxGeometry>
        </mxCell>
        <mxCell id="rjxhquQ0YUwU6D_5x0ZY-31" value="" style="endArrow=classic;html=1;rounded=0;" edge="1" parent="1">
          <mxGeometry width="50" height="50" relative="1" as="geometry">
            <mxPoint x="320" y="280" as="sourcePoint" />
            <mxPoint x="320" y="240" as="targetPoint" />
          </mxGeometry>
        </mxCell>
      </root>
    </mxGraphModel>
  </diagram>
</mxfile>
